<!--?xml version="1.0" encoding="utf-8"?-->
<!-- Generator: Adobe Illustrator 18.1.1, SVG Export Plug-In . SVG Version: 6.00 Build 0)  -->

<svg version="1.1" id="_x32_" xmlns="http://www.w3.org/2000/svg" xmlns:xlink="http://www.w3.org/1999/xlink" x="0px" y="0px" viewBox="0 0 512 512" style="width: 256px; height: 256px; opacity: 1;" xml:space="preserve">
<style type="text/css">
	.st0{fill:#4B4B4B;}
</style>
<g>
	<path class="st0" d="M426.14,233.587c15.609,7.811,44.227-6.93,44.227-6.93c-62.448-69.39-97.14-194.996-97.14-194.996
		s-34.691,125.606-97.139,194.996c0,0,28.617,14.741,44.23,6.93c0,0-12.352,67.183-64.32,137.508
		c-51.964-70.325-64.312-137.508-64.312-137.508c15.609,7.811,44.227-6.93,44.227-6.93c-62.448-69.39-97.14-194.996-97.14-194.996
		s-34.691,125.606-97.14,194.996c0,0,28.618,14.741,44.231,6.93c0,0-15.613,85.174-85.864,164.111
		c62.441,17.342,106.093-12.51,106.093-12.51v95.152h25.001h15.358h25.002v-95.152c0,0,33.85,23.099,84.544,16.809
		c50.698,6.29,84.548-16.809,84.548-16.809v95.152h25.001h15.359h25.002v-95.152c0,0,43.652,29.852,106.092,12.51
		C441.749,318.761,426.14,233.587,426.14,233.587z" style="fill: rgb(75, 75, 75);"></path>
</g>
</svg>
