<svg version="1.1" id="Layer_1" xmlns="http://www.w3.org/2000/svg" xmlns:xlink="http://www.w3.org/1999/xlink" x="0px" y="0px"
	 width="100%" viewBox="0 0 398 236" enable-background="new 0 0 398 236" xml:space="preserve">
<path fill="#FEFEFE" opacity="1.000000" stroke="none" 
	d="
M231.000000,237.000000 
	C154.000015,237.000000 77.500031,237.000000 1.000031,237.000000 
	C1.000021,158.333359 1.000021,79.666725 1.000010,1.000062 
	C133.666611,1.000042 266.333221,1.000042 398.999878,1.000021 
	C398.999939,79.666603 398.999939,158.333206 398.999969,236.999908 
	C343.166656,237.000000 287.333344,237.000000 231.000000,237.000000 
M109.000000,54.000000 
	C109.000000,54.000000 109.003105,53.996632 108.800804,53.265274 
	C103.883850,53.526630 98.966888,53.787987 93.701782,54.924145 
	C93.664360,99.529709 93.624962,144.135269 93.610420,188.740829 
	C93.610229,189.342346 93.924263,189.943970 94.104485,190.591751 
	C98.463417,190.591751 102.590652,190.591751 107.496292,190.673615 
	C107.823418,188.947891 108.413208,187.225220 108.433220,185.495941 
	C108.531296,177.021332 108.520844,168.544708 108.469131,160.069260 
	C108.343437,139.469620 108.163887,118.870285 108.027756,98.270691 
	C107.988091,92.268768 108.021660,86.266373 108.021660,79.808113 
	C109.572029,81.244568 110.634506,82.228989 111.948868,83.820992 
	C112.454941,84.783478 112.961021,85.745972 113.238098,87.421700 
	C113.827499,88.768669 114.276016,90.200729 115.029686,91.448479 
	C119.222252,98.389626 123.488838,105.286064 127.981705,112.810509 
	C128.545685,113.755890 129.109665,114.701263 129.421738,116.314377 
	C132.465775,120.970230 135.509811,125.626083 138.829483,130.881195 
	C139.393723,131.815292 139.957962,132.749374 140.310165,134.373459 
	C143.273972,138.839233 146.237793,143.305023 149.393570,148.220764 
	C149.393570,148.220764 149.577591,148.674026 149.375809,149.334549 
	C150.581528,150.891830 151.787231,152.449112 153.150543,154.388809 
	C153.150543,154.388809 153.321213,154.765564 153.157394,155.467545 
	C154.949615,158.076141 156.741821,160.684738 158.909851,163.868027 
	C160.072922,165.819794 161.235977,167.771561 162.231674,170.430084 
	C164.456619,173.646835 166.681580,176.863571 169.072571,180.450455 
	C169.072571,180.450455 169.222656,180.827316 169.043777,181.504089 
	C169.961227,182.724533 170.878693,183.944977 172.178223,185.619308 
	C172.372757,185.962006 172.567291,186.304718 172.484665,187.249222 
	C173.274353,188.206528 174.064026,189.163818 175.537903,190.636719 
	C180.434326,190.636719 185.330765,190.636719 190.505920,190.636719 
	C190.505920,145.022858 190.505920,100.163139 190.805878,54.584846 
	C188.024857,51.935066 180.663956,51.587715 176.992050,54.001652 
	C176.992050,54.001652 176.931351,53.936008 176.130814,54.023708 
	C175.829178,55.431877 175.267853,56.839447 175.264603,58.248302 
	C175.210464,81.771614 175.210083,105.295128 175.266632,128.818436 
	C175.269974,130.211090 175.855576,131.602356 176.278961,133.927094 
	C176.423248,141.832977 176.567520,149.738861 176.315475,158.473923 
	C175.839111,160.694336 175.362762,162.914749 174.712738,164.534973 
	C174.570648,164.143799 174.428558,163.752640 174.568298,162.691574 
	C172.817139,159.720093 171.065964,156.748611 169.051956,153.173141 
	C168.514084,152.220795 167.976212,151.268463 167.726273,149.694183 
	C167.188324,149.097504 166.650391,148.500824 165.849197,147.394241 
	C165.701859,147.041214 165.554504,146.688187 165.643372,145.661850 
	C164.163544,143.386093 162.683701,141.110336 160.823853,138.380951 
	C160.632812,138.037537 160.441772,137.694138 160.532898,136.689987 
	C158.024292,132.791199 155.515686,128.892395 152.849487,124.611229 
	C152.849487,124.611229 152.678818,124.234497 152.841263,123.525841 
	C150.594086,120.322174 148.346893,117.118500 145.881607,113.394714 
	C145.615311,112.902161 145.349030,112.409599 145.151093,111.236992 
	C144.220856,110.075020 143.290619,108.913048 142.095490,107.144722 
	C141.523132,106.209503 140.950790,105.274284 140.641693,103.725594 
	C140.063309,103.182281 139.484924,102.638977 138.713654,101.698807 
	C138.713654,101.698807 138.540817,101.292809 138.744003,100.604179 
	C136.918411,98.004173 135.092804,95.404175 133.117661,92.421722 
	C133.117661,92.421722 132.947769,92.047874 133.095139,91.428978 
	C132.531052,90.863327 131.966980,90.297676 131.099289,89.142212 
	C130.515366,88.212791 129.931458,87.283371 129.582214,85.680855 
	C126.090721,80.423218 122.599228,75.165573 118.931847,69.543938 
	C118.931847,69.543938 118.784363,69.167534 118.952400,68.487465 
	C118.015320,67.285233 117.078247,66.083000 115.749237,64.343582 
	C114.957535,63.009262 114.165833,61.674938 113.629654,59.679226 
	C112.087509,57.785046 110.545357,55.890865 109.000000,54.000000 
M266.361481,138.499817 
	C266.361481,155.780243 266.361481,173.060669 266.361481,190.536041 
	C290.506683,190.536041 314.072754,190.536041 337.806274,190.536041 
	C337.806274,186.348129 337.806274,182.469254 337.806274,178.070282 
	C318.833344,178.070282 300.220642,178.070282 281.166779,178.070282 
	C281.166779,175.575424 281.166779,173.603302 281.166779,171.631195 
	C281.166748,136.474670 281.166718,101.318153 281.166718,66.161629 
	C281.166718,53.225044 281.166595,53.221115 268.302124,53.673164 
	C267.839325,53.689426 267.384796,53.940384 266.361481,54.256439 
	C266.361481,81.951591 266.361481,109.725685 266.361481,138.499817 
M232.211105,190.838303 
	C236.189911,191.433487 235.857071,188.767944 235.855606,186.168915 
	C235.831573,143.556992 235.841782,100.945061 235.824341,58.333134 
	C235.823761,56.901951 235.614609,55.470852 235.471100,53.636089 
	C232.312286,53.636089 229.472229,53.935947 226.720917,53.569477 
	C221.974060,52.937214 220.939911,54.871002 220.957703,59.379101 
	C221.123352,101.324570 221.052658,143.270966 221.066422,185.217087 
	C221.066986,186.973038 221.224380,188.728928 221.325684,190.838547 
	C225.010986,190.838547 228.147812,190.838547 232.211105,190.838303 
z"/>
<path fill="#090909" opacity="1.000000" stroke="none" 
	d="
M174.286469,163.361465 
	C174.428558,163.752640 174.570648,164.143799 174.710541,165.223862 
	C175.538422,167.037628 176.368515,168.162521 177.198608,169.287399 
	C177.716599,169.060425 178.234589,168.833435 178.752579,168.606445 
	C178.072327,164.952545 177.392059,161.298645 176.711807,157.644745 
	C176.567520,149.738861 176.423248,141.832977 176.444702,133.117950 
	C176.652054,129.315536 176.721375,126.322334 176.730865,123.328934 
	C176.804214,100.197975 176.865967,77.066986 176.931335,53.936008 
	C176.931351,53.936008 176.992050,54.001652 177.417023,54.075363 
	C182.063293,54.533852 186.284607,54.918633 190.505920,55.303413 
	C190.505920,100.163139 190.505920,145.022858 190.505920,190.636719 
	C185.330765,190.636719 180.434326,190.636719 175.249878,190.066956 
	C174.228531,188.547272 173.495178,187.597336 172.761841,186.647415 
	C172.567291,186.304718 172.372757,185.962006 172.032547,185.050598 
	C170.998795,183.263702 170.110718,182.045517 169.222656,180.827316 
	C169.222656,180.827316 169.072571,180.450455 169.052765,179.907867 
	C166.821640,176.151291 164.610352,172.937302 162.399048,169.723328 
	C161.235977,167.771561 160.072922,165.819794 158.822708,163.235352 
	C156.930786,159.990295 155.125992,157.377930 153.321213,154.765564 
	C153.321213,154.765564 153.150543,154.388809 153.146347,153.857605 
	C151.953964,151.775604 150.765778,150.224823 149.577591,148.674026 
	C149.577591,148.674026 149.393570,148.220764 149.338272,147.634399 
	C146.362717,142.593185 143.442459,138.138321 140.522202,133.683456 
	C139.957962,132.749374 139.393723,131.815292 138.795929,130.234680 
	C135.732803,124.940994 132.703217,120.293816 129.673645,115.646637 
	C129.109665,114.701263 128.545685,113.755890 127.946106,112.150154 
	C126.721619,109.351059 125.574814,107.187614 124.335915,105.078255 
	C120.732742,98.943382 117.092682,92.830170 113.467087,86.708458 
	C112.961021,85.745972 112.454941,84.783478 111.926819,83.155151 
	C110.464920,79.393272 109.025055,76.297241 107.585190,73.201210 
	C106.197739,74.689278 105.824188,76.035835 105.868759,77.368408 
	C106.174049,86.496964 106.854759,95.621849 106.878326,104.749290 
	C106.952225,133.363113 106.789162,161.977554 106.717888,190.591751 
	C102.590652,190.591751 98.463417,190.591751 94.104485,190.591751 
	C93.924263,189.943970 93.610229,189.342346 93.610420,188.740829 
	C93.624962,144.135269 93.664360,99.529709 94.335175,54.550728 
	C99.646744,54.117085 104.324928,54.056858 109.003105,53.996632 
	C109.003105,53.996632 109.000000,54.000000 109.025986,54.337936 
	C110.492699,56.564117 111.933418,58.452366 113.374138,60.340614 
	C114.165833,61.674938 114.957535,63.009262 115.882904,64.951691 
	C116.939163,66.762375 117.861763,67.964958 118.784363,69.167534 
	C118.784363,69.167534 118.931847,69.543938 118.976143,70.084396 
	C122.462807,75.867882 125.905167,81.110916 129.347534,86.353951 
	C129.931458,87.283371 130.515366,88.212791 131.151917,89.755951 
	C131.785614,90.929085 132.366684,91.488480 132.947769,92.047874 
	C132.947769,92.047874 133.117661,92.421722 133.105988,92.963432 
	C134.909821,96.101028 136.725311,98.696922 138.540817,101.292809 
	C138.540817,101.292809 138.713654,101.698807 138.744263,102.189468 
	C139.309402,103.233109 139.843918,103.786087 140.378448,104.339058 
	C140.950790,105.274284 141.523132,106.209503 142.140503,107.779297 
	C143.151260,109.581589 144.116989,110.749321 145.082733,111.917046 
	C145.349030,112.409599 145.615311,112.902161 145.934204,114.012787 
	C148.217484,117.832069 150.448151,121.033279 152.678818,124.234497 
	C152.678818,124.234497 152.849487,124.611229 152.860748,125.163956 
	C155.331589,129.594711 157.791153,133.472717 160.250732,137.350723 
	C160.441772,137.694138 160.632812,138.037537 160.972595,138.964462 
	C162.549927,141.810364 163.978546,144.072754 165.407166,146.335159 
	C165.554504,146.688187 165.701859,147.041214 165.893768,147.942352 
	C166.438354,149.099014 166.938339,149.707565 167.438339,150.316116 
	C167.976212,151.268463 168.514084,152.220795 169.096680,153.833038 
	C170.856430,157.449112 172.571442,160.405289 174.286469,163.361465 
z"/>
<path fill="#0D0D0D" opacity="1.000000" stroke="none" 
	d="
M266.361481,137.999802 
	C266.361481,109.725685 266.361481,81.951591 266.361481,54.256439 
	C267.384796,53.940384 267.839325,53.689426 268.302124,53.673164 
	C281.166595,53.221115 281.166718,53.225044 281.166718,66.161629 
	C281.166718,101.318153 281.166748,136.474670 281.166779,171.631195 
	C281.166779,173.603302 281.166779,175.575424 281.166779,178.070282 
	C300.220642,178.070282 318.833344,178.070282 337.806274,178.070282 
	C337.806274,182.469254 337.806274,186.348129 337.806274,190.536041 
	C314.072754,190.536041 290.506683,190.536041 266.361481,190.536041 
	C266.361481,173.060669 266.361481,155.780243 266.361481,137.999802 
z"/>
<path fill="#0C0C0C" opacity="1.000000" stroke="none" 
	d="
M231.747879,190.838425 
	C228.147812,190.838547 225.010986,190.838547 221.325684,190.838547 
	C221.224380,188.728928 221.066986,186.973038 221.066422,185.217087 
	C221.052658,143.270966 221.123352,101.324570 220.957703,59.379101 
	C220.939911,54.871002 221.974060,52.937214 226.720917,53.569477 
	C229.472229,53.935947 232.312286,53.636089 235.471100,53.636089 
	C235.614609,55.470852 235.823761,56.901951 235.824341,58.333134 
	C235.841782,100.945061 235.831573,143.556992 235.855606,186.168915 
	C235.857071,188.767944 236.189911,191.433487 231.747879,190.838425 
z"/>
<path fill="#858585" opacity="1.000000" stroke="none" 
	d="
M107.107086,190.632690 
	C106.789162,161.977554 106.952225,133.363113 106.878326,104.749290 
	C106.854759,95.621849 106.174049,86.496964 105.868759,77.368408 
	C105.824188,76.035835 106.197739,74.689278 107.585190,73.201210 
	C109.025055,76.297241 110.464920,79.393272 111.800880,82.851349 
	C110.634506,82.228989 109.572029,81.244568 108.021660,79.808113 
	C108.021660,86.266373 107.988091,92.268768 108.027756,98.270691 
	C108.163887,118.870285 108.343437,139.469620 108.469131,160.069260 
	C108.520844,168.544708 108.531296,177.021332 108.433220,185.495941 
	C108.413208,187.225220 107.823418,188.947891 107.107086,190.632690 
z"/>
<path fill="#858585" opacity="1.000000" stroke="none" 
	d="
M176.531067,53.979858 
	C176.865967,77.066986 176.804214,100.197975 176.730865,123.328934 
	C176.721375,126.322334 176.652054,129.315536 176.390335,132.651550 
	C175.855576,131.602356 175.269974,130.211090 175.266632,128.818436 
	C175.210083,105.295128 175.210464,81.771614 175.264603,58.248302 
	C175.267853,56.839447 175.829178,55.431877 176.531067,53.979858 
z"/>
<path fill="#858585" opacity="1.000000" stroke="none" 
	d="
M113.352592,87.065079 
	C117.092682,92.830170 120.732742,98.943382 124.335915,105.078255 
	C125.574814,107.187614 126.721619,109.351059 127.820305,111.843796 
	C123.488838,105.286064 119.222252,98.389626 115.029686,91.448479 
	C114.276016,90.200729 113.827499,88.768669 113.352592,87.065079 
z"/>
<path fill="#858585" opacity="1.000000" stroke="none" 
	d="
M129.464874,86.017403 
	C125.905167,81.110916 122.462807,75.867882 119.064087,70.266388 
	C122.599228,75.165573 126.090721,80.423218 129.464874,86.017403 
z"/>
<path fill="#858585" opacity="1.000000" stroke="none" 
	d="
M129.547699,115.980507 
	C132.703217,120.293816 135.732803,124.940994 138.658112,129.935059 
	C135.509811,125.626083 132.465775,120.970230 129.547699,115.980507 
z"/>
<path fill="#858585" opacity="1.000000" stroke="none" 
	d="
M108.901955,53.630951 
	C104.324928,54.056858 99.646744,54.117085 94.509247,54.113327 
	C98.966888,53.787987 103.883850,53.526630 108.901955,53.630951 
z"/>
<path fill="#858585" opacity="1.000000" stroke="none" 
	d="
M140.416183,134.028458 
	C143.442459,138.138321 146.362717,142.593185 149.242279,147.409424 
	C146.237793,143.305023 143.273972,138.839233 140.416183,134.028458 
z"/>
<path fill="#858585" opacity="1.000000" stroke="none" 
	d="
M190.655899,54.944130 
	C186.284607,54.918633 182.063293,54.533852 177.391235,54.039818 
	C180.663956,51.587715 188.024857,51.935066 190.655899,54.944130 
z"/>
<path fill="#858585" opacity="1.000000" stroke="none" 
	d="
M160.391815,137.020355 
	C157.791153,133.472717 155.331589,129.594711 152.939545,125.355148 
	C155.515686,128.892395 158.024292,132.791199 160.391815,137.020355 
z"/>
<path fill="#858585" opacity="1.000000" stroke="none" 
	d="
M176.513641,158.059326 
	C177.392059,161.298645 178.072327,164.952545 178.752579,168.606445 
	C178.234589,168.833435 177.716599,169.060425 177.198608,169.287399 
	C176.368515,168.162521 175.538422,167.037628 174.797363,165.523956 
	C175.362762,162.914749 175.839111,160.694336 176.513641,158.059326 
z"/>
<path fill="#858585" opacity="1.000000" stroke="none" 
	d="
M152.760040,123.880173 
	C150.448151,121.033279 148.217484,117.832069 146.043259,114.272842 
	C148.346893,117.118500 150.594086,120.322174 152.760040,123.880173 
z"/>
<path fill="#858585" opacity="1.000000" stroke="none" 
	d="
M162.315369,170.076706 
	C164.610352,172.937302 166.821640,176.151291 168.969727,179.722794 
	C166.681580,176.863571 164.456619,173.646835 162.315369,170.076706 
z"/>
<path fill="#858585" opacity="1.000000" stroke="none" 
	d="
M174.427383,163.026520 
	C172.571442,160.405289 170.856430,157.449112 169.228104,154.135040 
	C171.065964,156.748611 172.817139,159.720093 174.427383,163.026520 
z"/>
<path fill="#858585" opacity="1.000000" stroke="none" 
	d="
M138.642410,100.948494 
	C136.725311,98.696922 134.909821,96.101028 133.180756,93.154663 
	C135.092804,95.404175 136.918411,98.004173 138.642410,100.948494 
z"/>
<path fill="#858585" opacity="1.000000" stroke="none" 
	d="
M153.239304,155.116547 
	C155.125992,157.377930 156.930786,159.990295 158.634796,162.947998 
	C156.741821,160.684738 154.949615,158.076141 153.239304,155.116547 
z"/>
<path fill="#858585" opacity="1.000000" stroke="none" 
	d="
M165.525269,145.998505 
	C163.978546,144.072754 162.549927,141.810364 161.162598,139.191284 
	C162.683701,141.110336 164.163544,143.386093 165.525269,145.998505 
z"/>
<path fill="#858585" opacity="1.000000" stroke="none" 
	d="
M113.501892,60.009918 
	C111.933418,58.452366 110.492699,56.564117 109.027596,54.336281 
	C110.545357,55.890865 112.087509,57.785046 113.501892,60.009918 
z"/>
<path fill="#858585" opacity="1.000000" stroke="none" 
	d="
M149.476700,149.004288 
	C150.765778,150.224823 151.953964,151.775604 153.067535,153.666412 
	C151.787231,152.449112 150.581528,150.891830 149.476700,149.004288 
z"/>
<path fill="#858585" opacity="1.000000" stroke="none" 
	d="
M118.868378,68.827499 
	C117.861763,67.964958 116.939163,66.762375 116.078873,65.220276 
	C117.078247,66.083000 118.015320,67.285233 118.868378,68.827499 
z"/>
<path fill="#858585" opacity="1.000000" stroke="none" 
	d="
M169.133209,181.165710 
	C170.110718,182.045517 170.998795,183.263702 171.841507,184.823654 
	C170.878693,183.944977 169.961227,182.724533 169.133209,181.165710 
z"/>
<path fill="#858585" opacity="1.000000" stroke="none" 
	d="
M145.116913,111.577019 
	C144.116989,110.749321 143.151260,109.581589 142.272949,108.082474 
	C143.290619,108.913048 144.220856,110.075020 145.116913,111.577019 
z"/>
<path fill="#858585" opacity="1.000000" stroke="none" 
	d="
M172.623260,186.948318 
	C173.495178,187.597336 174.228531,188.547272 174.907791,189.809158 
	C174.064026,189.163818 173.274353,188.206528 172.623260,186.948318 
z"/>
<path fill="#858585" opacity="1.000000" stroke="none" 
	d="
M167.582306,150.005157 
	C166.938339,149.707565 166.438354,149.099014 166.025391,148.197296 
	C166.650391,148.500824 167.188324,149.097504 167.582306,150.005157 
z"/>
<path fill="#858585" opacity="1.000000" stroke="none" 
	d="
M140.510071,104.032326 
	C139.843918,103.786087 139.309402,103.233109 138.840698,102.387901 
	C139.484924,102.638977 140.063309,103.182281 140.510071,104.032326 
z"/>
<path fill="#858585" opacity="1.000000" stroke="none" 
	d="
M133.021454,91.738426 
	C132.366684,91.488480 131.785614,90.929085 131.303711,90.050858 
	C131.966980,90.297676 132.531052,90.863327 133.021454,91.738426 
z"/>
</svg>