<svg version="1.1" id="Layer_1" xmlns="http://www.w3.org/2000/svg" xmlns:xlink="http://www.w3.org/1999/xlink" x="0px" y="0px"
	 width="100%" viewBox="0 0 1024 576" enable-background="new 0 0 1024 576" xml:space="preserve">
<path fill="#000000" opacity="1.000000" stroke="none" 
	d="
M1024.500000,577.000000 
	C1023.847351,566.567932 1023.392395,556.130005 1024.803711,545.362244 
	C1025.000000,555.666687 1025.000000,566.333313 1024.500000,577.000000 
z"/>
<path fill="#000000" opacity="1.000000" stroke="none" 
	d="
M1025.000000,24.531307 
	C1023.027893,17.384312 1024.417603,9.620811 1023.993042,1.468696 
	C1025.925903,0.830601 1024.943115,2.319580 1024.950195,2.947002 
	C1025.029297,9.984839 1025.000000,17.023891 1025.000000,24.531307 
z"/>
<path fill="#000000" opacity="1.000000" stroke="none" 
	d="
M279.331940,258.117767 
	C279.330780,270.431427 279.352051,282.263031 279.319580,294.094482 
	C279.301331,300.742859 277.492950,302.654297 270.751587,302.891449 
	C265.591156,303.072968 260.421539,302.986664 255.256134,303.035583 
	C253.078186,303.056213 251.318481,303.479736 251.234283,306.282867 
	C251.156555,308.871704 252.342407,309.859009 254.781799,309.985382 
	C257.074371,310.104095 259.313812,310.721893 259.198364,313.614075 
	C259.069000,316.854980 256.457794,317.004883 254.082214,317.016968 
	C244.250977,317.067078 234.419312,317.051361 224.587875,317.027405 
	C222.186371,317.021545 219.537842,316.851868 219.111130,313.889404 
	C218.641312,310.627411 221.355377,310.230774 223.715759,309.970581 
	C228.309677,309.464172 226.707306,306.137238 227.088425,302.926361 
	C221.022797,302.926361 215.264557,302.954620 209.506699,302.919861 
	C200.482742,302.865356 198.740295,301.097748 198.734131,292.029999 
	C198.725983,280.031555 198.694412,268.032867 198.761963,256.034760 
	C198.798553,249.536926 200.891968,247.183121 207.449783,247.138641 
	C228.445938,246.996185 249.444260,246.996719 270.440491,247.132950 
	C277.808655,247.180740 279.286224,249.188461 279.331940,258.117767 
M242.500046,254.289383 
	C231.695038,254.285995 220.889145,254.358887 210.085541,254.234161 
	C206.704681,254.195145 205.266571,255.369400 205.351105,258.864441 
	C205.507828,265.343292 205.489166,271.832123 205.316803,278.310760 
	C205.226288,281.713074 206.463959,283.064575 209.937546,283.047089 
	C229.386063,282.949066 248.835434,282.954803 268.284119,283.029022 
	C271.469757,283.041199 272.784058,281.881744 272.713684,278.642975 
	C272.576447,272.329285 272.482910,266.001953 272.752716,259.696625 
	C272.925873,255.649918 271.670776,254.056351 267.434509,254.203369 
	C259.464966,254.479965 251.479126,254.287704 242.500046,254.289383 
M207.360046,295.626465 
	C227.791916,295.663300 248.223770,295.707947 268.655640,295.723541 
	C270.479309,295.724945 272.499298,295.840942 272.592072,293.124146 
	C272.682556,290.475037 270.881104,290.270752 268.921722,290.270355 
	C248.986511,290.266235 229.051117,290.218567 209.116257,290.300323 
	C205.386597,290.315613 204.345306,292.167023 207.360046,295.626465 
M242.755920,303.564606 
	C240.848801,302.681641 238.841187,302.922577 236.854706,303.081146 
	C235.340836,303.201996 234.374329,304.008545 234.279175,305.599854 
	C234.200226,306.920502 233.878983,308.549988 235.232895,309.247528 
	C237.544235,310.438354 240.235474,310.453278 242.485672,309.396515 
	C244.758438,308.329163 244.111755,306.080292 242.755920,303.564606 
z"/>
<path fill="#000000" opacity="1.000000" stroke="none" 
	d="
M717.003845,150.938324 
	C712.010315,150.894241 707.513123,150.921921 703.021667,150.774918 
	C700.918518,150.706100 698.898804,150.041626 698.835327,147.446136 
	C698.772339,144.871490 700.649780,143.975159 702.822021,143.966537 
	C705.832092,143.954590 706.919312,142.621307 706.834106,139.669617 
	C706.729553,136.047745 704.275330,136.405212 701.933594,136.400558 
	C696.604614,136.389999 691.273865,136.475891 685.947205,136.362473 
	C680.792664,136.252762 678.721191,134.190811 678.688843,128.983459 
	C678.606018,115.661652 678.603455,102.338837 678.666321,89.016884 
	C678.693665,83.221069 680.850159,81.088470 687.038147,81.033958 
	C700.359497,80.916595 713.682556,80.995789 727.004944,80.998924 
	C734.665283,81.000725 742.327209,80.916481 749.985474,81.045044 
	C757.225098,81.166595 759.260559,83.243874 759.282410,90.318314 
	C759.320984,102.807915 759.320374,115.297951 759.257751,127.787407 
	C759.224792,134.355148 757.154480,136.325790 750.517639,136.395004 
	C745.023499,136.452301 739.529175,136.509216 734.034851,136.518082 
	C731.641052,136.521942 730.319641,137.352585 730.367310,140.028854 
	C730.409607,142.402069 731.033630,143.851074 733.711609,143.888687 
	C736.283508,143.924820 739.238647,144.160675 738.877075,147.686234 
	C738.535767,151.015030 735.451843,150.844177 732.988281,150.891708 
	C727.828003,150.991287 722.664673,150.932358 717.003845,150.938324 
M694.570129,116.925674 
	C712.025879,116.923248 729.482971,116.806969 746.936523,117.002457 
	C751.042786,117.048454 752.607605,115.703537 752.520691,111.650223 
	C752.381714,105.171608 752.500000,98.685966 752.595215,92.204567 
	C752.632568,89.659554 752.017334,88.179771 748.999756,88.191833 
	C729.050720,88.271561 709.101074,88.252777 689.151794,88.196304 
	C686.397766,88.188507 685.259216,89.263435 685.295227,92.034813 
	C685.386047,99.015923 685.381836,105.999619 685.300842,112.980942 
	C685.269287,115.697594 686.337219,117.020119 689.109680,116.909554 
	C690.603088,116.849991 692.101501,116.914619 694.570129,116.925674 
M738.481323,129.711823 
	C742.140442,129.696732 745.799622,129.690384 749.458618,129.662201 
	C750.922607,129.650925 752.169983,129.263229 752.129456,127.469749 
	C752.092529,125.837753 751.531555,124.485931 749.633545,124.331383 
	C748.309875,124.223602 746.975586,124.215759 745.645996,124.214905 
	C732.672302,124.206551 719.698669,124.208870 706.724976,124.208649 
	C700.737183,124.208542 694.749390,124.209000 688.761597,124.210342 
	C686.940125,124.210754 685.431885,124.559784 685.385010,126.871490 
	C685.339111,129.129868 686.679626,129.697952 688.587646,129.687836 
	C689.751831,129.681671 690.916077,129.707825 692.080322,129.708008 
	C707.216248,129.710480 722.352234,129.710892 738.481323,129.711823 
M723.606567,142.068130 
	C723.787964,137.040253 719.528198,134.339249 715.068237,136.659927 
	C712.899841,137.788239 713.964417,139.858200 713.734497,141.517334 
	C713.494873,143.247131 714.690918,143.888153 716.179932,143.807571 
	C718.565308,143.678543 721.123962,144.642670 723.606567,142.068130 
z"/>
<path fill="#000000" opacity="1.000000" stroke="none" 
	d="
M755.004883,382.525208 
	C758.268799,384.141357 759.275208,386.611694 759.271912,389.677917 
	C759.257751,402.837677 759.331116,415.997955 759.232056,429.156982 
	C759.188965,434.884613 756.754761,437.146484 750.844910,437.252319 
	C745.516052,437.347748 740.184204,437.290924 734.853699,437.284882 
	C732.575439,437.282288 730.500732,437.281189 730.427917,440.530518 
	C730.362244,443.460419 731.294434,444.913513 734.420410,444.712280 
	C736.769775,444.561005 739.026184,445.205414 738.953918,448.068726 
	C738.881226,450.949036 736.479065,451.275848 734.216919,451.281891 
	C724.055847,451.309082 713.894470,451.305725 703.733398,451.278015 
	C701.503052,451.271942 699.108765,451.111725 698.867615,448.202820 
	C698.619934,445.214752 700.820374,444.660065 703.182983,444.706970 
	C706.079956,444.764435 706.855713,443.226044 706.822754,440.607300 
	C706.783020,437.458496 704.810608,437.256195 702.453613,437.270538 
	C697.289795,437.301941 692.124939,437.326599 686.961914,437.253326 
	C680.859985,437.166748 678.691772,435.129913 678.662903,429.234802 
	C678.598450,416.075348 678.702820,402.915009 678.625793,389.755707 
	C678.600525,385.433563 680.321228,382.186798 684.706848,382.132080 
	C708.005432,381.841278 731.310730,381.264496 755.004883,382.525208 
M688.013489,389.179169 
	C685.841858,389.333588 685.313538,390.747528 685.317261,392.626953 
	C685.331482,399.792664 685.363708,406.958771 685.305298,414.124023 
	C685.284729,416.648224 686.347595,417.734253 688.885437,417.729675 
	C708.883057,417.693573 728.880676,417.696838 748.878357,417.720245 
	C751.358398,417.723145 752.488281,416.759247 752.466309,414.143524 
	C752.410461,407.481476 752.440735,400.815063 752.632751,394.156036 
	C752.742065,390.363678 751.397644,388.930756 747.404602,388.971161 
	C727.908936,389.168457 708.410461,389.091370 688.013489,389.179169 
M734.481323,430.602478 
	C738.967285,430.578186 743.454468,430.609039 747.938477,430.502594 
	C749.747375,430.459686 752.251709,431.394379 752.382324,428.120911 
	C752.511230,424.890991 750.247925,424.901947 747.991028,424.902130 
	C728.717651,424.903809 709.444275,424.879791 690.171082,424.935303 
	C688.135620,424.941162 685.456604,424.511810 685.416382,427.826385 
	C685.374084,431.313477 688.128418,430.560730 690.122986,430.568268 
	C704.577759,430.622986 719.032959,430.600647 734.481323,430.602478 
M720.252991,444.659149 
	C722.797729,444.821106 723.932495,443.606110 723.787903,441.087769 
	C723.702271,439.596100 723.886292,437.676544 721.941956,437.532349 
	C719.253540,437.332886 716.158630,436.116852 713.983521,438.607574 
	C712.895691,439.853180 713.049133,441.890198 713.938354,443.347351 
	C715.226013,445.457306 717.541260,444.395782 720.252991,444.659149 
z"/>
<path fill="#000000" opacity="1.000000" stroke="none" 
	d="
M725.963135,301.189148 
	C718.472961,301.167206 711.476013,301.184479 704.479614,301.127808 
	C701.979004,301.107574 699.038940,301.279633 698.913391,297.717438 
	C698.803955,294.614563 701.397644,294.643677 703.581726,294.611481 
	C706.301086,294.571381 706.843445,292.993469 706.825867,290.664673 
	C706.806458,288.090912 705.556641,287.085907 703.126831,287.093506 
	C697.796021,287.110107 692.463806,287.153168 687.134521,287.055817 
	C680.784302,286.939850 678.694824,284.867737 678.672791,278.640564 
	C678.627380,265.813019 678.629761,252.985046 678.675354,240.157471 
	C678.697693,233.862900 680.777344,231.749893 687.068909,231.737595 
	C708.226257,231.696198 729.383911,231.688248 750.541199,231.748703 
	C756.914185,231.766907 759.220459,234.128433 759.255859,240.585739 
	C759.325256,253.246506 759.327820,265.908234 759.251404,278.568939 
	C759.214478,284.692993 756.943298,286.923370 750.727539,287.082672 
	C745.899231,287.206390 741.065002,287.078430 736.234741,287.151276 
	C730.102783,287.243683 729.958557,287.478638 731.267578,294.201752 
	C732.653809,294.327545 734.116760,294.461823 735.579956,294.592651 
	C737.450684,294.759888 738.869690,295.622833 738.971985,297.590118 
	C739.091797,299.894806 737.398682,300.850708 735.444092,300.995239 
	C732.459595,301.215912 729.453491,301.145844 725.963135,301.189148 
M752.607239,261.233948 
	C752.611694,255.572067 752.418091,249.900803 752.685791,244.251389 
	C752.885742,240.030746 751.791077,238.560791 747.117126,238.679352 
	C733.977173,239.012650 720.820251,239.132019 707.666260,238.549088 
	C700.405151,238.227295 693.118103,238.491425 685.302490,238.491425 
	C685.302490,246.990707 685.471741,254.787567 685.231323,262.571777 
	C685.110535,266.480408 686.387085,267.796753 690.361511,267.759552 
	C709.343872,267.581909 728.329529,267.565277 747.311890,267.733917 
	C751.571655,267.771790 753.087891,266.152618 752.607239,261.233948 
M688.104065,279.853943 
	C708.044006,279.876221 727.983887,279.908966 747.923828,279.905457 
	C750.043396,279.905090 752.622925,280.249817 752.426086,276.865814 
	C752.248535,273.813904 749.802612,274.382294 747.914734,274.378876 
	C728.473022,274.343597 709.031311,274.344971 689.589539,274.370605 
	C688.159424,274.372498 686.355164,273.957306 685.668030,275.737854 
	C685.029602,277.392303 685.121460,279.057831 688.104065,279.853943 
M723.807251,291.157257 
	C722.839905,283.902130 717.661377,288.332458 714.296692,287.099701 
	C713.541077,289.760223 713.445251,291.809174 713.926331,294.101807 
	C716.061157,294.250122 718.023560,294.414917 719.989380,294.514923 
	C721.895752,294.611908 723.800842,294.635651 723.807251,291.157257 
z"/>
<path fill="#000000" opacity="1.000000" stroke="none" 
	d="
M321.859985,317.035278 
	C312.887970,317.032532 304.397919,316.945984 295.910553,317.059113 
	C291.472504,317.118225 289.639069,315.215271 289.659668,310.753418 
	C289.756409,289.781219 289.767914,268.807892 289.638611,247.835983 
	C289.610443,243.268753 291.510315,241.601868 295.919922,241.669617 
	C305.405273,241.815338 314.897064,241.845413 324.380951,241.657898 
	C328.968231,241.567215 330.490753,243.501846 330.472961,247.935989 
	C330.391602,268.223541 331.082794,288.509766 330.461639,308.801056 
	C330.217896,316.762787 330.242218,316.914001 321.859985,317.035278 
M296.378021,298.466278 
	C296.376190,300.294434 296.557037,302.144958 296.336456,303.946320 
	C295.789124,308.416687 297.385162,310.304443 302.113617,310.021423 
	C307.910278,309.674500 313.743591,309.848083 319.558746,309.940399 
	C322.488617,309.986908 323.763153,308.877747 323.730225,305.844666 
	C323.631073,296.705078 323.607178,287.562073 323.755524,278.423676 
	C323.810516,275.037262 322.270081,274.129272 319.219208,274.186951 
	C313.072174,274.303192 306.919189,274.319977 300.773132,274.181396 
	C297.597656,274.109833 296.264313,275.269257 296.340851,278.532562 
	C296.488892,284.844452 296.380432,291.162354 296.378021,298.466278 
M309.507721,255.825836 
	C312.997559,255.820969 316.488892,255.750977 319.976746,255.831787 
	C322.775818,255.896637 323.782257,254.609528 323.738098,251.885544 
	C323.696594,249.325378 322.631042,248.314804 320.118530,248.343170 
	C313.471924,248.418243 306.823730,248.427948 300.176941,248.372009 
	C297.409912,248.348740 296.336761,249.583496 296.348297,252.307129 
	C296.359436,254.938980 297.635223,255.837997 300.043152,255.807434 
	C302.867706,255.771576 305.693207,255.815842 309.507721,255.825836 
M304.273926,262.833252 
	C303.449341,262.756622 302.607239,262.535187 301.803619,262.632202 
	C299.869324,262.865631 296.856232,261.505859 296.590576,264.718048 
	C296.284546,268.417786 299.562256,267.531921 301.659821,267.575378 
	C307.620453,267.698822 313.585449,267.633331 319.548523,267.600891 
	C321.372528,267.590973 323.534912,267.717987 323.496674,265.057983 
	C323.459717,262.490814 321.378693,262.458801 319.512512,262.495026 
	C314.714020,262.588165 309.916718,262.741669 304.273926,262.833252 
z"/>
<path fill="#000000" opacity="1.000000" stroke="none" 
	d="
M810.306152,138.945160 
	C810.304688,150.962967 810.304688,150.960403 798.825806,150.944412 
	C791.336304,150.933975 783.846069,150.996597 776.357605,150.906174 
	C770.457275,150.834930 769.644775,150.025360 769.635803,144.302551 
	C769.603088,123.331978 769.711060,102.360664 769.552490,81.391243 
	C769.519287,76.994736 771.161804,75.520470 775.419678,75.610191 
	C784.735840,75.806480 794.059021,75.645447 803.379089,75.688774 
	C809.687439,75.718102 810.286865,76.307526 810.295532,82.533569 
	C810.321472,101.174057 810.305481,119.814613 810.306152,138.945160 
M803.626953,111.932526 
	C803.856018,109.068428 802.330383,108.134895 799.694336,108.156586 
	C793.206482,108.209984 786.716675,108.240028 780.230042,108.135292 
	C777.122192,108.085106 776.234985,109.579346 776.262451,112.436447 
	C776.348938,121.419640 776.402466,130.406586 776.223877,139.387207 
	C776.151855,143.007553 777.747742,143.987335 781.029419,143.907059 
	C786.848938,143.764740 792.681091,143.699692 798.495178,143.927765 
	C802.347839,144.078918 803.824951,142.779617 803.714478,138.793274 
	C803.475037,130.148453 803.634766,121.492584 803.626953,111.932526 
M787.529419,82.321739 
	C785.041809,82.324928 782.550598,82.413307 780.067566,82.308632 
	C777.291077,82.191582 776.222656,83.401360 776.262329,86.159645 
	C776.298889,88.702438 777.322571,89.749306 779.840820,89.724159 
	C786.473816,89.657921 793.108337,89.648186 799.741333,89.711632 
	C802.459229,89.737633 803.626587,88.624481 803.623108,85.854538 
	C803.619385,82.852577 801.948730,82.264587 799.458984,82.306099 
	C795.811462,82.366928 792.162170,82.322533 787.529419,82.321739 
M802.952759,100.076904 
	C804.244141,97.187202 802.528870,96.456558 800.190063,96.437256 
	C793.389038,96.381119 786.587097,96.411751 779.785645,96.432869 
	C778.277954,96.437546 776.579346,96.392105 776.492615,98.513954 
	C776.410217,100.529968 777.926636,100.980682 779.519897,100.965286 
	C787.132019,100.891716 794.758972,101.605560 802.952759,100.076904 
z"/>
<path fill="#000000" opacity="1.000000" stroke="none" 
	d="
M769.728882,297.602295 
	C769.662903,275.511505 769.747559,253.880920 769.550415,232.252899 
	C769.507874,227.590286 771.472534,225.994675 775.744812,226.018616 
	C785.228210,226.071777 794.712402,226.073181 804.195740,226.012863 
	C808.616089,225.984741 810.373962,228.002258 810.349060,232.442322 
	C810.232422,253.239609 810.216309,274.038483 810.362732,294.835419 
	C810.396606,299.653046 808.412354,301.319214 803.781555,301.224396 
	C794.467896,301.033630 785.147705,301.165924 775.830200,301.148254 
	C773.306030,301.143494 770.694763,301.249786 769.728882,297.602295 
M779.950256,258.387268 
	C777.040527,258.166260 776.246460,259.754791 776.264771,262.376007 
	C776.329773,271.704102 776.383484,281.034424 776.238098,290.360718 
	C776.185974,293.702667 777.568604,294.728516 780.715088,294.622284 
	C787.038452,294.408813 793.374512,294.248779 799.695618,294.421173 
	C802.908936,294.508820 803.704651,293.221344 803.671387,290.325562 
	C803.566162,281.164734 803.520813,272.000244 803.676331,262.840942 
	C803.737610,259.233093 802.151306,258.237701 798.844238,258.325470 
	C792.851440,258.484467 786.851440,258.374756 779.950256,258.387268 
M790.493469,233.056519 
	C787.680115,233.054764 784.866150,233.015442 782.053528,233.059021 
	C776.090210,233.151398 775.765869,233.590485 776.847473,239.984344 
	C784.712769,239.984344 792.606079,239.992172 800.499390,239.979523 
	C802.820679,239.975800 803.634338,238.664337 803.644165,236.468658 
	C803.654297,234.207626 802.705261,233.060394 800.419922,233.063705 
	C797.441223,233.068008 794.462524,233.060852 790.493469,233.056519 
M785.580261,251.746643 
	C790.550720,251.736282 795.521240,251.738693 800.491577,251.707184 
	C801.861694,251.698502 803.262207,251.549866 803.450378,249.779556 
	C803.632812,248.062393 802.547058,247.355194 801.032715,247.348495 
	C793.578857,247.315628 786.124756,247.321548 778.670898,247.355255 
	C777.339966,247.361267 776.460693,248.082947 776.453369,249.495758 
	C776.446045,250.911530 777.321106,251.599792 778.653503,251.651093 
	C780.638794,251.727493 782.627441,251.718185 785.580261,251.746643 
z"/>
<path fill="#000000" opacity="1.000000" stroke="none" 
	d="
M809.158936,377.812592 
	C810.567566,379.812042 810.287170,381.688141 810.289124,383.494751 
	C810.310791,403.785950 810.318604,424.077148 810.304321,444.368347 
	C810.299988,450.580688 809.612183,451.285126 803.456116,451.307129 
	C793.975952,451.341064 784.494812,451.237915 775.015564,451.338196 
	C771.257874,451.377930 769.565491,449.913330 769.579956,446.039612 
	C769.660095,424.584473 769.639893,403.128937 769.617188,381.673553 
	C769.614258,378.868927 770.143250,376.649933 773.590088,376.658569 
	C784.731995,376.686523 795.873901,376.704163 807.015564,376.774353 
	C807.629089,376.778229 808.239807,377.222076 809.158936,377.812592 
M803.628296,440.069763 
	C803.627502,430.930603 803.603760,421.791321 803.641235,412.652313 
	C803.651306,410.203644 803.275635,408.453491 800.134644,408.560760 
	C793.330994,408.793060 786.518677,408.913574 779.712158,408.845612 
	C776.993835,408.818481 776.258484,409.969971 776.273560,412.411102 
	C776.332031,421.882172 776.345886,431.354187 776.275452,440.825073 
	C776.255127,443.562225 777.325562,444.741272 780.106018,444.698761 
	C786.585022,444.599670 793.066406,444.622498 799.546570,444.653564 
	C802.097839,444.665802 803.772827,443.864471 803.628296,440.069763 
M799.060913,390.660492 
	C802.023865,390.859131 803.808655,389.982971 803.671753,386.503448 
	C803.528870,382.870544 801.059509,383.252563 798.753052,383.245575 
	C792.598877,383.226959 786.444031,383.305542 780.290344,383.250549 
	C777.703918,383.227448 776.259827,383.979004 776.258972,386.925537 
	C776.258057,389.792236 777.507019,390.723999 780.190186,390.686462 
	C786.176941,390.602631 792.165833,390.664642 799.060913,390.660492 
M789.506470,401.882812 
	C793.149353,401.868408 796.792419,401.872467 800.434998,401.831116 
	C802.039673,401.812897 803.521851,401.459167 803.440674,399.410706 
	C803.370483,397.638062 802.014221,397.379486 800.606567,397.376190 
	C793.486267,397.359589 786.365967,397.352631 779.245667,397.364166 
	C777.819763,397.366455 776.502075,397.710785 776.480408,399.477264 
	C776.454956,401.559296 778.005859,401.763977 779.575928,401.789886 
	C782.556030,401.839050 785.536804,401.852875 789.506470,401.882812 
z"/>
<path fill="#000000" opacity="1.000000" stroke="none" 
	d="
M558.027771,315.246216 
	C551.322144,318.660889 544.450012,319.562531 537.380981,319.399048 
	C537.138672,321.647797 538.870056,322.206024 539.746277,323.254364 
	C541.693420,325.583984 539.852356,326.856476 538.556580,328.312988 
	C537.224670,329.810089 535.775208,330.811005 533.887817,329.113403 
	C530.048401,325.660095 526.133118,322.285675 522.406433,318.714508 
	C520.067749,316.473389 520.219116,313.943512 522.588684,311.732056 
	C525.876770,308.663452 529.297852,305.736816 532.568298,302.650085 
	C534.586914,300.744904 536.333130,299.460785 538.818176,302.160187 
	C540.991455,304.521057 541.073914,306.394806 538.509399,308.373077 
	C538.014465,308.754822 537.708252,309.381134 536.935120,310.390625 
	C545.955811,312.105743 553.375793,309.521301 559.941345,304.309723 
	C570.654175,295.806122 574.613525,281.591095 570.160278,268.725494 
	C565.681885,255.787170 553.947327,247.470413 540.009644,247.356827 
	C538.176636,247.341888 536.342957,247.289627 534.510803,247.321976 
	C532.027344,247.365829 530.863098,246.219391 530.836121,243.708984 
	C530.809814,241.262756 531.347229,239.419571 534.241882,239.214737 
	C549.436401,238.139435 565.178467,242.655716 574.832397,259.334076 
	C583.396912,274.130341 581.418335,293.351135 570.426331,305.496490 
	C566.938232,309.350525 563.085083,312.765686 558.027771,315.246216 
z"/>
<path fill="#000000" opacity="1.000000" stroke="none" 
	d="
M455.712372,250.712769 
	C463.699249,243.199356 467.086914,241.869370 486.698273,238.466644 
	C485.450989,235.704910 480.955872,233.296402 485.578430,229.836426 
	C487.355347,228.506409 488.678284,228.136002 490.360840,229.674362 
	C494.045868,233.043655 497.808960,236.329163 501.442993,239.752075 
	C503.980011,242.141724 503.942017,244.704529 501.353149,247.077835 
	C498.040955,250.114136 494.650482,253.064957 491.332489,256.095062 
	C489.232452,258.012909 487.404083,258.845123 485.063965,256.158722 
	C482.865356,253.634811 483.233276,251.816544 485.631775,249.912170 
	C486.133026,249.514160 486.478333,248.919754 486.928894,248.375534 
	C478.766693,245.604645 465.634583,250.540619 459.287628,258.874084 
	C451.225494,269.459534 449.547943,281.065155 455.287933,293.115845 
	C461.048981,305.210815 470.940247,311.277893 484.509399,310.982513 
	C486.171844,310.946320 487.837738,311.011871 489.500671,311.069397 
	C492.242157,311.164124 493.173889,312.740692 493.212860,315.325409 
	C493.253754,318.036133 492.152405,319.090424 489.410706,319.333801 
	C471.221344,320.948395 455.759705,312.594696 447.877258,296.721436 
	C440.445648,281.756042 443.413910,263.860718 455.712372,250.712769 
z"/>
<path fill="#000000" opacity="1.000000" stroke="none" 
	d="
M500.301575,311.088043 
	C503.296204,310.976288 505.431915,311.455750 505.269073,314.745361 
	C505.174377,316.658966 505.729126,319.048462 502.732605,319.195129 
	C500.853729,319.287109 498.359222,320.064697 497.560791,317.580719 
	C496.763336,315.099823 496.224243,312.227356 500.301575,311.088043 
z"/>
<path fill="#000000" opacity="1.000000" stroke="none" 
	d="
M524.578308,247.132416 
	C522.284302,247.106216 519.927734,248.084702 519.021301,245.551071 
	C518.415955,243.859055 518.150879,241.742477 519.362366,240.320251 
	C520.616272,238.848236 522.704163,239.026764 524.483337,239.535446 
	C527.440186,240.380814 527.614746,243.324997 524.578308,247.132416 
z"/>
<path fill="#000000" opacity="1.000000" stroke="none" 
	d="
M306.870361,293.582520 
	C307.589020,291.144196 308.914917,290.083038 311.069031,290.657013 
	C313.046051,291.183807 313.524597,292.880676 313.294312,294.600616 
	C312.918915,297.404602 315.010529,302.162262 310.316589,302.162170 
	C304.954620,302.162018 307.233795,297.105652 306.870361,293.582520 
z"/>
<path fill="#000000" opacity="1.000000" stroke="none" 
	d="
M789.953613,136.146347 
	C786.691650,134.085037 785.448975,127.745651 787.514587,125.398727 
	C789.236511,123.442322 791.029846,123.839775 792.471558,125.769821 
	C794.382507,128.328140 793.196716,133.946182 789.953613,136.146347 
z"/>
<path fill="#000000" opacity="1.000000" stroke="none" 
	d="
M793.266602,280.881714 
	C793.273071,283.959320 792.870972,286.823029 789.587463,286.578522 
	C785.737732,286.291962 786.728577,282.802704 786.685486,280.332458 
	C786.643921,277.944031 786.190613,274.811890 789.912659,274.912628 
	C793.372681,275.006256 793.194641,277.950287 793.266602,280.881714 
z"/>
<path fill="#000000" opacity="1.000000" stroke="none" 
	d="
M793.025391,427.510803 
	C793.095276,430.073883 793.244385,432.238617 792.953308,434.342468 
	C792.728394,435.967804 791.351379,436.889374 789.719421,436.859222 
	C788.022949,436.827911 786.964966,435.714661 786.786560,434.055023 
	C786.610718,432.419952 786.657410,430.757507 786.663086,429.107269 
	C786.668945,427.374817 787.006165,425.729858 788.903870,425.108917 
	C790.806458,424.486328 792.063171,425.440002 793.025391,427.510803 
z"/>
</svg>