<svg width="1192" height="582" viewBox="0 0 1192 582" fill="none" xmlns="http://www.w3.org/2000/svg">
<rect width="1192" height="582" fill="#F5F5F5"/>
<path d="M133.955 131.182L145.455 154.182L157.364 131.182H179.773L160.273 166.091L180.5 201H158.273L145.455 177.818L132.955 201H110.409L130.682 166.091L111.409 131.182H133.955Z" fill="#FF8C00"/>
<path d="M251.83 201H217.42V107.909H251.784C261.269 107.909 269.436 109.773 276.284 113.5C283.163 117.197 288.466 122.53 292.193 129.5C295.92 136.439 297.784 144.742 297.784 154.409C297.784 164.106 295.92 172.439 292.193 179.409C288.496 186.379 283.208 191.727 276.33 195.455C269.451 199.152 261.284 201 251.83 201ZM239.92 181.818H250.966C256.178 181.818 260.587 180.939 264.193 179.182C267.83 177.394 270.572 174.5 272.42 170.5C274.299 166.47 275.239 161.106 275.239 154.409C275.239 147.712 274.299 142.379 272.42 138.409C270.542 134.409 267.769 131.53 264.102 129.773C260.466 127.985 255.981 127.091 250.648 127.091H239.92V181.818ZM303.625 126.182V107.909H382.307V126.182H354.08V201H331.898V126.182H303.625ZM443.614 135.818C443.311 132.485 441.962 129.894 439.568 128.045C437.205 126.167 433.826 125.227 429.432 125.227C426.523 125.227 424.098 125.606 422.159 126.364C420.22 127.121 418.765 128.167 417.795 129.5C416.826 130.803 416.326 132.303 416.295 134C416.235 135.394 416.508 136.621 417.114 137.682C417.75 138.742 418.659 139.682 419.841 140.5C421.053 141.288 422.508 141.985 424.205 142.591C425.902 143.197 427.811 143.727 429.932 144.182L437.932 146C442.538 147 446.598 148.333 450.114 150C453.659 151.667 456.629 153.652 459.023 155.955C461.447 158.258 463.28 160.909 464.523 163.909C465.765 166.909 466.402 170.273 466.432 174C466.402 179.879 464.917 184.924 461.977 189.136C459.038 193.348 454.811 196.576 449.295 198.818C443.811 201.061 437.189 202.182 429.432 202.182C421.644 202.182 414.856 201.015 409.068 198.682C403.28 196.348 398.78 192.803 395.568 188.045C392.356 183.288 390.705 177.273 390.614 170H412.159C412.341 173 413.144 175.5 414.568 177.5C415.992 179.5 417.947 181.015 420.432 182.045C422.947 183.076 425.856 183.591 429.159 183.591C432.189 183.591 434.765 183.182 436.886 182.364C439.038 181.545 440.689 180.409 441.841 178.955C442.992 177.5 443.583 175.833 443.614 173.955C443.583 172.197 443.038 170.697 441.977 169.455C440.917 168.182 439.28 167.091 437.068 166.182C434.886 165.242 432.098 164.379 428.705 163.591L418.977 161.318C410.917 159.47 404.568 156.485 399.932 152.364C395.295 148.212 392.992 142.606 393.023 135.545C392.992 129.788 394.538 124.742 397.659 120.409C400.78 116.076 405.098 112.697 410.614 110.273C416.129 107.848 422.417 106.636 429.477 106.636C436.689 106.636 442.947 107.864 448.25 110.318C453.583 112.742 457.72 116.152 460.659 120.545C463.598 124.939 465.098 130.03 465.159 135.818H443.614Z" fill="#1E1E1E"/>
<path d="M228 471L458.2 381.76L726.766 406.747L997 189" stroke="#87CEEB" stroke-width="11"/>
<ellipse cx="873.5" cy="217.5" rx="68.5" ry="74.5" fill="#0040FF"/>
<ellipse cx="326" cy="461.5" rx="41" ry="41.5" fill="#0040FF"/>
<ellipse cx="736" cy="445.5" rx="69" ry="74.5" fill="#0040FF"/>
<path d="M526.5 333C526.5 355.004 510.876 372.5 492 372.5C473.124 372.5 457.5 355.004 457.5 333C457.5 310.996 473.124 293.5 492 293.5C510.876 293.5 526.5 310.996 526.5 333Z" fill="#F5F5F5" stroke="#FF0000" stroke-width="3"/>
</svg>
